<mxfile host="app.diagrams.net" modified="2022-11-17T11:58:22.916Z" agent="5.0 (Windows NT 10.0; Win64; x64) AppleWebKit/537.36 (KHTML, like Gecko) Chrome/107.0.0.0 Safari/537.36" etag="_mNZs_GOOuhWEhMakarj" version="20.5.3" type="github">
  <diagram id="di6Ij0C30Qtt-6YRdoVT" name="Page-1">
    <mxGraphModel dx="1578" dy="1438" grid="0" gridSize="10" guides="1" tooltips="1" connect="1" arrows="1" fold="1" page="0" pageScale="1" pageWidth="850" pageHeight="1100" math="0" shadow="0">
      <root>
        <mxCell id="0" />
        <mxCell id="1" parent="0" />
        <mxCell id="VnV-ATxPVUEfKpq770co-50" style="edgeStyle=orthogonalEdgeStyle;rounded=0;orthogonalLoop=1;jettySize=auto;html=1;exitX=0;exitY=0.5;exitDx=0;exitDy=0;entryX=1;entryY=0.5;entryDx=0;entryDy=0;" edge="1" parent="1" source="VnV-ATxPVUEfKpq770co-49" target="VnV-ATxPVUEfKpq770co-18">
          <mxGeometry relative="1" as="geometry" />
        </mxCell>
        <mxCell id="VnV-ATxPVUEfKpq770co-49" value="" style="rounded=1;whiteSpace=wrap;html=1;" vertex="1" parent="1">
          <mxGeometry x="521" y="-214" width="290" height="190" as="geometry" />
        </mxCell>
        <mxCell id="VnV-ATxPVUEfKpq770co-25" style="edgeStyle=none;curved=1;rounded=0;orthogonalLoop=1;jettySize=auto;html=1;exitX=0;exitY=0.5;exitDx=0;exitDy=0;entryX=1;entryY=0.5;entryDx=0;entryDy=0;fontSize=12;endArrow=open;startSize=14;endSize=14;sourcePerimeterSpacing=8;targetPerimeterSpacing=8;dashed=1;" edge="1" parent="1" source="VnV-ATxPVUEfKpq770co-4" target="VnV-ATxPVUEfKpq770co-8">
          <mxGeometry relative="1" as="geometry" />
        </mxCell>
        <mxCell id="VnV-ATxPVUEfKpq770co-4" value="Consul Server" style="rounded=0;whiteSpace=wrap;html=1;fontSize=16;" vertex="1" parent="1">
          <mxGeometry x="1184" y="207" width="160" height="67" as="geometry" />
        </mxCell>
        <mxCell id="VnV-ATxPVUEfKpq770co-5" value="ServiceChainConfig" style="whiteSpace=wrap;html=1;fontSize=16;" vertex="1" parent="1">
          <mxGeometry x="559" y="-108.5" width="211" height="66" as="geometry" />
        </mxCell>
        <mxCell id="VnV-ATxPVUEfKpq770co-39" style="edgeStyle=none;curved=1;rounded=0;orthogonalLoop=1;jettySize=auto;html=1;exitX=0;exitY=0.5;exitDx=0;exitDy=0;entryX=1;entryY=0.5;entryDx=0;entryDy=0;fontSize=12;endArrow=open;startSize=14;endSize=14;sourcePerimeterSpacing=8;targetPerimeterSpacing=8;" edge="1" parent="1" source="VnV-ATxPVUEfKpq770co-8" target="VnV-ATxPVUEfKpq770co-38">
          <mxGeometry relative="1" as="geometry" />
        </mxCell>
        <mxCell id="VnV-ATxPVUEfKpq770co-8" value="CheckExistingServices()" style="rounded=1;whiteSpace=wrap;html=1;fontSize=16;" vertex="1" parent="1">
          <mxGeometry x="867" y="207" width="194" height="66" as="geometry" />
        </mxCell>
        <mxCell id="VnV-ATxPVUEfKpq770co-16" style="edgeStyle=none;curved=1;rounded=0;orthogonalLoop=1;jettySize=auto;html=1;exitX=0.5;exitY=1;exitDx=0;exitDy=0;fontSize=12;endArrow=open;startSize=14;endSize=14;sourcePerimeterSpacing=8;targetPerimeterSpacing=8;entryX=0.5;entryY=0;entryDx=0;entryDy=0;" edge="1" parent="1" source="VnV-ATxPVUEfKpq770co-9" target="VnV-ATxPVUEfKpq770co-38">
          <mxGeometry relative="1" as="geometry">
            <mxPoint x="728" y="171" as="targetPoint" />
          </mxGeometry>
        </mxCell>
        <mxCell id="VnV-ATxPVUEfKpq770co-9" value="FetchCurrentServices()" style="rounded=1;whiteSpace=wrap;html=1;fontSize=16;" vertex="1" parent="1">
          <mxGeometry x="559" y="52" width="208" height="66" as="geometry" />
        </mxCell>
        <mxCell id="VnV-ATxPVUEfKpq770co-10" value="RegisterService" style="rounded=1;whiteSpace=wrap;html=1;fontSize=16;" vertex="1" parent="1">
          <mxGeometry x="468" y="728" width="148" height="61" as="geometry" />
        </mxCell>
        <mxCell id="VnV-ATxPVUEfKpq770co-11" value="DeregisterService" style="rounded=1;whiteSpace=wrap;html=1;fontSize=16;" vertex="1" parent="1">
          <mxGeometry x="747.5" y="724" width="148" height="61" as="geometry" />
        </mxCell>
        <mxCell id="VnV-ATxPVUEfKpq770co-35" style="edgeStyle=none;curved=1;rounded=0;orthogonalLoop=1;jettySize=auto;html=1;exitX=0.5;exitY=1;exitDx=0;exitDy=0;entryX=0.25;entryY=0;entryDx=0;entryDy=0;fontSize=12;endArrow=open;startSize=14;endSize=14;sourcePerimeterSpacing=8;targetPerimeterSpacing=8;" edge="1" parent="1" source="VnV-ATxPVUEfKpq770co-13" target="VnV-ATxPVUEfKpq770co-10">
          <mxGeometry relative="1" as="geometry" />
        </mxCell>
        <mxCell id="VnV-ATxPVUEfKpq770co-13" value="Create" style="rhombus;whiteSpace=wrap;html=1;fontSize=16;" vertex="1" parent="1">
          <mxGeometry x="453" y="409" width="97" height="95" as="geometry" />
        </mxCell>
        <mxCell id="VnV-ATxPVUEfKpq770co-37" style="edgeStyle=none;curved=1;rounded=0;orthogonalLoop=1;jettySize=auto;html=1;exitX=0.5;exitY=1;exitDx=0;exitDy=0;entryX=0.5;entryY=0;entryDx=0;entryDy=0;fontSize=12;endArrow=open;startSize=14;endSize=14;sourcePerimeterSpacing=8;targetPerimeterSpacing=8;" edge="1" parent="1" source="VnV-ATxPVUEfKpq770co-14" target="VnV-ATxPVUEfKpq770co-11">
          <mxGeometry relative="1" as="geometry" />
        </mxCell>
        <mxCell id="VnV-ATxPVUEfKpq770co-14" value="Delete" style="rhombus;whiteSpace=wrap;html=1;fontSize=16;" vertex="1" parent="1">
          <mxGeometry x="773" y="409" width="97" height="95" as="geometry" />
        </mxCell>
        <mxCell id="VnV-ATxPVUEfKpq770co-47" style="edgeStyle=none;rounded=0;orthogonalLoop=1;jettySize=auto;html=1;exitX=0.5;exitY=1;exitDx=0;exitDy=0;entryX=0;entryY=0.5;entryDx=0;entryDy=0;fontSize=12;endArrow=open;startSize=14;endSize=14;sourcePerimeterSpacing=8;targetPerimeterSpacing=8;" edge="1" parent="1" source="VnV-ATxPVUEfKpq770co-18" target="VnV-ATxPVUEfKpq770co-9">
          <mxGeometry relative="1" as="geometry">
            <Array as="points">
              <mxPoint x="334" y="85" />
            </Array>
          </mxGeometry>
        </mxCell>
        <mxCell id="VnV-ATxPVUEfKpq770co-18" value="Watcher" style="rhombus;whiteSpace=wrap;html=1;fontSize=16;" vertex="1" parent="1">
          <mxGeometry x="284" y="-166.5" width="97" height="95" as="geometry" />
        </mxCell>
        <mxCell id="VnV-ATxPVUEfKpq770co-34" style="edgeStyle=none;curved=1;rounded=0;orthogonalLoop=1;jettySize=auto;html=1;exitX=0.5;exitY=1;exitDx=0;exitDy=0;entryX=0.75;entryY=0;entryDx=0;entryDy=0;fontSize=12;endArrow=open;startSize=14;endSize=14;sourcePerimeterSpacing=8;targetPerimeterSpacing=8;" edge="1" parent="1" source="VnV-ATxPVUEfKpq770co-23" target="VnV-ATxPVUEfKpq770co-10">
          <mxGeometry relative="1" as="geometry" />
        </mxCell>
        <mxCell id="VnV-ATxPVUEfKpq770co-23" value="Update" style="rhombus;whiteSpace=wrap;html=1;fontSize=16;" vertex="1" parent="1">
          <mxGeometry x="617.5" y="409" width="97" height="95" as="geometry" />
        </mxCell>
        <mxCell id="VnV-ATxPVUEfKpq770co-42" style="edgeStyle=none;curved=1;rounded=0;orthogonalLoop=1;jettySize=auto;html=1;exitX=0.25;exitY=1;exitDx=0;exitDy=0;entryX=0.5;entryY=0;entryDx=0;entryDy=0;fontSize=12;endArrow=open;startSize=14;endSize=14;sourcePerimeterSpacing=8;targetPerimeterSpacing=8;" edge="1" parent="1" source="VnV-ATxPVUEfKpq770co-38" target="VnV-ATxPVUEfKpq770co-13">
          <mxGeometry relative="1" as="geometry" />
        </mxCell>
        <mxCell id="VnV-ATxPVUEfKpq770co-43" style="edgeStyle=none;curved=1;rounded=0;orthogonalLoop=1;jettySize=auto;html=1;exitX=0.5;exitY=1;exitDx=0;exitDy=0;entryX=0.5;entryY=0;entryDx=0;entryDy=0;fontSize=12;endArrow=open;startSize=14;endSize=14;sourcePerimeterSpacing=8;targetPerimeterSpacing=8;" edge="1" parent="1" source="VnV-ATxPVUEfKpq770co-38" target="VnV-ATxPVUEfKpq770co-23">
          <mxGeometry relative="1" as="geometry" />
        </mxCell>
        <mxCell id="VnV-ATxPVUEfKpq770co-44" style="edgeStyle=none;curved=1;rounded=0;orthogonalLoop=1;jettySize=auto;html=1;exitX=0.75;exitY=1;exitDx=0;exitDy=0;entryX=0.5;entryY=0;entryDx=0;entryDy=0;fontSize=12;endArrow=open;startSize=14;endSize=14;sourcePerimeterSpacing=8;targetPerimeterSpacing=8;" edge="1" parent="1" source="VnV-ATxPVUEfKpq770co-38" target="VnV-ATxPVUEfKpq770co-14">
          <mxGeometry relative="1" as="geometry" />
        </mxCell>
        <mxCell id="VnV-ATxPVUEfKpq770co-38" value="CompareServices()" style="rounded=0;whiteSpace=wrap;html=1;fontSize=16;" vertex="1" parent="1">
          <mxGeometry x="584.5" y="200" width="160" height="80" as="geometry" />
        </mxCell>
        <mxCell id="VnV-ATxPVUEfKpq770co-46" value="&lt;span style=&quot;color: rgb(240, 240, 240); font-family: Helvetica; font-size: 16px; font-style: normal; font-variant-ligatures: normal; font-variant-caps: normal; font-weight: 400; letter-spacing: normal; orphans: 2; text-align: center; text-indent: 0px; text-transform: none; widows: 2; word-spacing: 0px; -webkit-text-stroke-width: 0px; background-color: rgb(42, 42, 42); text-decoration-thickness: initial; text-decoration-style: initial; text-decoration-color: initial; float: none; display: inline !important;&quot;&gt;ChangeDetected&lt;/span&gt;" style="text;whiteSpace=wrap;html=1;fontSize=16;" vertex="1" parent="1">
          <mxGeometry x="338" y="-4" width="148" height="41" as="geometry" />
        </mxCell>
        <mxCell id="VnV-ATxPVUEfKpq770co-48" value="Pod" style="whiteSpace=wrap;html=1;fontSize=16;" vertex="1" parent="1">
          <mxGeometry x="557.5" y="-189" width="211" height="66" as="geometry" />
        </mxCell>
        <mxCell id="VnV-ATxPVUEfKpq770co-51" value="FromConfigMap" style="text;html=1;align=center;verticalAlign=middle;resizable=0;points=[];autosize=1;strokeColor=none;fillColor=none;" vertex="1" parent="1">
          <mxGeometry x="660" y="118" width="104" height="26" as="geometry" />
        </mxCell>
        <mxCell id="VnV-ATxPVUEfKpq770co-52" value="API Call" style="text;html=1;align=center;verticalAlign=middle;resizable=0;points=[];autosize=1;strokeColor=none;fillColor=none;" vertex="1" parent="1">
          <mxGeometry x="995" y="273" width="61" height="26" as="geometry" />
        </mxCell>
        <mxCell id="VnV-ATxPVUEfKpq770co-57" value="&lt;span style=&quot;color: rgb(240, 240, 240); font-family: Helvetica; font-size: 16px; font-style: normal; font-variant-ligatures: normal; font-variant-caps: normal; font-weight: 400; letter-spacing: normal; orphans: 2; text-align: center; text-indent: 0px; text-transform: none; widows: 2; word-spacing: 0px; -webkit-text-stroke-width: 0px; background-color: rgb(42, 42, 42); text-decoration-thickness: initial; text-decoration-style: initial; text-decoration-color: initial; float: none; display: inline !important;&quot;&gt;Compare services from server and configmap&lt;/span&gt;" style="text;whiteSpace=wrap;html=1;" vertex="1" parent="1">
          <mxGeometry x="414" y="211" width="196" height="69" as="geometry" />
        </mxCell>
        <mxCell id="VnV-ATxPVUEfKpq770co-59" value="0 Create&lt;br&gt;-1 Delete" style="text;html=1;align=center;verticalAlign=middle;resizable=0;points=[];autosize=1;strokeColor=none;fillColor=none;" vertex="1" parent="1">
          <mxGeometry x="1113" y="-165" width="67" height="41" as="geometry" />
        </mxCell>
        <mxCell id="VnV-ATxPVUEfKpq770co-60" value="0" style="text;html=1;align=center;verticalAlign=middle;resizable=0;points=[];autosize=1;strokeColor=none;fillColor=none;" vertex="1" parent="1">
          <mxGeometry x="511" y="395" width="25" height="26" as="geometry" />
        </mxCell>
        <mxCell id="VnV-ATxPVUEfKpq770co-61" value="0" style="text;html=1;align=center;verticalAlign=middle;resizable=0;points=[];autosize=1;strokeColor=none;fillColor=none;" vertex="1" parent="1">
          <mxGeometry x="674" y="392" width="25" height="26" as="geometry" />
        </mxCell>
        <mxCell id="VnV-ATxPVUEfKpq770co-62" value="-1" style="text;html=1;align=center;verticalAlign=middle;resizable=0;points=[];autosize=1;strokeColor=none;fillColor=none;" vertex="1" parent="1">
          <mxGeometry x="838" y="399" width="29" height="26" as="geometry" />
        </mxCell>
        <mxCell id="VnV-ATxPVUEfKpq770co-63" value="API Call" style="text;html=1;align=center;verticalAlign=middle;resizable=0;points=[];autosize=1;strokeColor=none;fillColor=none;" vertex="1" parent="1">
          <mxGeometry x="555" y="785" width="61" height="26" as="geometry" />
        </mxCell>
        <mxCell id="VnV-ATxPVUEfKpq770co-64" value="API Call" style="text;html=1;align=center;verticalAlign=middle;resizable=0;points=[];autosize=1;strokeColor=none;fillColor=none;" vertex="1" parent="1">
          <mxGeometry x="840.5" y="785" width="61" height="26" as="geometry" />
        </mxCell>
      </root>
    </mxGraphModel>
  </diagram>
</mxfile>
